# xmcd
#
# Track frame offsets:
#	150
#	13661
#	28022
#	39668
#	66358
#	78170
#	93211
#	108722
#	124573
#	140315
#	152452
#	167534
#	182387
#	199566
#
# Disc length: 2824 seconds
#
# Revision: 0
# Processed by: cddbd v1.5.2PL0 Copyright (c) Steve Scherf et al.
# Submitted via: dBpowerAMP V4.0
#
DISCID=a50b060e
DTITLE=Richard Smerin - Anywhere Else But In Clover
DYEAR=1900
DGENRE=Blues
TTITLE0=White Room Blues
TTITLE1=I Feel The Good In You
TTITLE2=Tired Of Being Your Baby
TTITLE3=Point The Finger
TTITLE4=Puschendorf Angel
TTITLE5=Freedom Square
TTITLE6=Magdeburg Lawyer
TTITLE7=Since I Fell For You
TTITLE8=A Very Good Woman
TTITLE9=There's No Hiding Place
TTITLE10=More Than You'll Ever Know
TTITLE11=Paul Rishell
TTITLE12=May The Lord Watch Over You
TTITLE13=Got To Go
EXTD=
EXTT0=
EXTT1=
EXTT2=
EXTT3=
EXTT4=
EXTT5=
EXTT6=
EXTT7=
EXTT8=
EXTT9=
EXTT10=
EXTT11=
EXTT12=
EXTT13=
PLAYORDER=
